<svg width="60" height="60" xmlns="http://www.w3.org/2000/svg">

 <g>
  <title>background</title>
  <rect fill="none" id="canvas_background" height="402" width="582" y="-1" x="-1"/>
 </g>
 <g>
  <title>Layer 1</title>
  <rect id="svg_1" width="60" rx="10" height="60" fill="none"/>
  <rect id="svg_2" y="8" x="8" width="44" rx="6" height="44" fill="none"/>
  <path id="svg_3" fill="#5379ba" d="m46,53.5l-32,0a7.508,7.508 0 0 1 -7.5,-7.5l0,-32a7.508,7.508 0 0 1 7.5,-7.5l32,0a7.508,7.508 0 0 1 7.5,7.5l0,32a7.508,7.508 0 0 1 -7.5,7.5zm-32,-44a4.505,4.505 0 0 0 -4.5,4.5l0,32a4.505,4.505 0 0 0 4.5,4.5l32,0a4.505,4.505 0 0 0 4.5,-4.5l0,-32a4.505,4.505 0 0 0 -4.5,-4.5l-32,0z"/>
  <path id="svg_4" fill="#5379ba" d="m30,53.5a1.5,1.5 0 0 1 -1.5,-1.5l0,-44a1.5,1.5 0 0 1 3,0l0,44a1.5,1.5 0 0 1 -1.5,1.5z"/>
  <path id="svg_5" fill="#5379ba" d="m52,31.5l-44,0a1.5,1.5 0 0 1 0,-3l44,0a1.5,1.5 0 0 1 0,3z"/>
  <path id="svg_6" fill="#3992d6" d="m46,20.5l-10,0a1.5,1.5 0 0 1 0,-3l10,0a1.5,1.5 0 0 1 0,3z"/>
  <path id="svg_7" fill="#3992d6" d="m44,39.5l-6,0a1.5,1.5 0 0 1 0,-3l6,0a1.5,1.5 0 0 1 0,3z"/>
  <path id="svg_8" fill="#3992d6" d="m44,45.5l-6,0a1.5,1.5 0 0 1 0,-3l6,0a1.5,1.5 0 0 1 0,3z"/>
  <path id="svg_9" fill="#3992d6" d="m24,20.5l-10,0a1.5,1.5 0 0 1 0,-3l10,0a1.5,1.5 0 0 1 0,3z"/>
  <path id="svg_10" fill="#3992d6" d="m19,25.5a1.5,1.5 0 0 1 -1.5,-1.5l0,-10a1.5,1.5 0 0 1 3,0l0,10a1.5,1.5 0 0 1 -1.5,1.5z"/>
  <path id="svg_11" fill="#3992d6" d="m22.536,46.036a1.5,1.5 0 0 1 -1.061,-0.44l-7.075,-7.071a1.5,1.5 0 0 1 2.125,-2.125l7.075,7.075a1.5,1.5 0 0 1 -1.06,2.561l-0.004,0z"/>
  <path id="svg_12" fill="#3992d6" d="m15.464,46.036a1.5,1.5 0 0 1 -1.06,-2.561l7.071,-7.075a1.5,1.5 0 0 1 2.125,2.125l-7.075,7.075a1.5,1.5 0 0 1 -1.061,0.436z"/>
  <path id="svg_13" fill="#93c2ff" d="m8,47.5a1.5,1.5 0 0 1 -1.5,-1.5l0,-32a7.508,7.508 0 0 1 7.5,-7.5l32,0a1.5,1.5 0 0 1 0,3l-32,0a4.505,4.505 0 0 0 -4.5,4.5l0,32a1.5,1.5 0 0 1 -1.5,1.5z"/>
 </g>
</svg>